<?xml version="1.0" standalone="no"?><!DOCTYPE svg PUBLIC "-//W3C//DTD SVG 1.1//EN" "http://www.w3.org/Graphics/SVG/1.1/DTD/svg11.dtd"><svg t="1644595716802" class="icon" viewBox="0 0 1024 1024" version="1.1" xmlns="http://www.w3.org/2000/svg" p-id="57013" xmlns:xlink="http://www.w3.org/1999/xlink" width="200" height="200"><defs><style type="text/css"></style></defs><path d="M512 30.37362009c-266.5796693 0-482.63884895 216.0677599-482.63884895 482.63884896s216.05917967 482.63884895 482.63884895 482.63884894c266.57108907 0 482.63884895-216.0677599 482.63884895-482.63884894 0-266.5796693-216.0677599-482.63884895-482.63884895-482.63884896z m0 858.11900308c-207.39313099 0-375.47157388-168.08702313-375.47157388-375.48015412 0-207.39313099 168.07844287-375.48015412 375.47157388-375.48015412s375.48873436 168.08702313 375.48873436 375.48015412c0 207.39313099-168.09560336 375.48015412-375.48873436 375.48015412z" fill="#e6e6e6" p-id="57014"></path><path d="M512 30.37362009v107.15869484c207.39313099 0 375.48873436 168.08702313 375.48873436 375.48015412h107.15011459c0-266.5796693-216.0677599-482.63884895-482.63884895-482.63884896z" fill="#ffffff" p-id="57015"></path></svg>